<mxfile host="app.diagrams.net" modified="2024-01-08T03:02:20.839Z" agent="Mozilla/5.0 (Windows NT 10.0; Win64; x64) AppleWebKit/537.36 (KHTML, like Gecko) Chrome/120.0.0.0 Safari/537.36" etag="CCH0UPizzaHOKOo70yVU" version="22.1.17" type="github" pages="4">
  <diagram name="第 1 页" id="cpzl2ByvCGcXQiZo-43P">
    <mxGraphModel dx="1488" dy="893" grid="0" gridSize="10" guides="1" tooltips="1" connect="1" arrows="1" fold="1" page="1" pageScale="1" pageWidth="1169" pageHeight="827" math="0" shadow="0">
      <root>
        <mxCell id="0" />
        <mxCell id="1" parent="0" />
        <mxCell id="15oJ6TcjCSk08Qs32s2y-2" value="&lt;font style=&quot;font-size: 19px;&quot;&gt;普通用户&lt;/font&gt;" style="shape=umlActor;verticalLabelPosition=bottom;verticalAlign=top;html=1;outlineConnect=0;strokeWidth=3;" parent="1" vertex="1">
          <mxGeometry x="186" y="262" width="93" height="159" as="geometry" />
        </mxCell>
        <mxCell id="15oJ6TcjCSk08Qs32s2y-3" value="" style="endArrow=open;endFill=1;endSize=12;html=1;rounded=0;strokeWidth=2;" parent="1" edge="1">
          <mxGeometry width="160" relative="1" as="geometry">
            <mxPoint x="276" y="341" as="sourcePoint" />
            <mxPoint x="385" y="341" as="targetPoint" />
          </mxGeometry>
        </mxCell>
        <mxCell id="15oJ6TcjCSk08Qs32s2y-7" value="&lt;span style=&quot;font-size: 21px;&quot;&gt;评论操作&lt;/span&gt;" style="ellipse;whiteSpace=wrap;html=1;strokeWidth=3;" parent="1" vertex="1">
          <mxGeometry x="389" y="306.5" width="140" height="70" as="geometry" />
        </mxCell>
        <mxCell id="15oJ6TcjCSk08Qs32s2y-8" value="&lt;span style=&quot;font-size: 21px;&quot;&gt;发表评论&lt;/span&gt;" style="ellipse;whiteSpace=wrap;html=1;strokeWidth=3;" parent="1" vertex="1">
          <mxGeometry x="632" y="149" width="140" height="70" as="geometry" />
        </mxCell>
        <mxCell id="15oJ6TcjCSk08Qs32s2y-9" value="&lt;font style=&quot;font-size: 12px;&quot;&gt;&amp;lt;&amp;lt;extend&amp;gt;&amp;gt;&lt;/font&gt;" style="html=1;verticalAlign=bottom;labelBackgroundColor=none;endArrow=open;endFill=0;dashed=1;rounded=0;strokeWidth=2;entryX=1;entryY=0;entryDx=0;entryDy=0;" parent="1" target="15oJ6TcjCSk08Qs32s2y-7" edge="1">
          <mxGeometry width="160" relative="1" as="geometry">
            <mxPoint x="630" y="187" as="sourcePoint" />
            <mxPoint x="510" y="314" as="targetPoint" />
          </mxGeometry>
        </mxCell>
        <mxCell id="15oJ6TcjCSk08Qs32s2y-10" value="&lt;span style=&quot;font-size: 21px;&quot;&gt;查看评论&lt;/span&gt;" style="ellipse;whiteSpace=wrap;html=1;strokeWidth=3;" parent="1" vertex="1">
          <mxGeometry x="653" y="252" width="140" height="70" as="geometry" />
        </mxCell>
        <mxCell id="15oJ6TcjCSk08Qs32s2y-11" value="&lt;font style=&quot;font-size: 12px;&quot;&gt;&amp;lt;&amp;lt;extend&amp;gt;&amp;gt;&lt;/font&gt;" style="html=1;verticalAlign=bottom;labelBackgroundColor=none;endArrow=open;endFill=0;dashed=1;rounded=0;strokeWidth=2;exitX=0;exitY=0.5;exitDx=0;exitDy=0;" parent="1" source="15oJ6TcjCSk08Qs32s2y-10" edge="1">
          <mxGeometry width="160" relative="1" as="geometry">
            <mxPoint x="649" y="213" as="sourcePoint" />
            <mxPoint x="529" y="340" as="targetPoint" />
          </mxGeometry>
        </mxCell>
        <mxCell id="15oJ6TcjCSk08Qs32s2y-12" value="&lt;span style=&quot;font-size: 21px;&quot;&gt;回复评论&lt;/span&gt;" style="ellipse;whiteSpace=wrap;html=1;strokeWidth=3;" parent="1" vertex="1">
          <mxGeometry x="682" y="376.5" width="140" height="70" as="geometry" />
        </mxCell>
        <mxCell id="15oJ6TcjCSk08Qs32s2y-13" value="&lt;font style=&quot;font-size: 12px;&quot;&gt;&amp;lt;&amp;lt;extend&amp;gt;&amp;gt;&lt;/font&gt;" style="html=1;verticalAlign=bottom;labelBackgroundColor=none;endArrow=open;endFill=0;dashed=1;rounded=0;strokeWidth=2;entryX=0.95;entryY=0.744;entryDx=0;entryDy=0;entryPerimeter=0;" parent="1" target="15oJ6TcjCSk08Qs32s2y-7" edge="1">
          <mxGeometry width="160" relative="1" as="geometry">
            <mxPoint x="680" y="410" as="sourcePoint" />
            <mxPoint x="534" y="403" as="targetPoint" />
          </mxGeometry>
        </mxCell>
        <mxCell id="15oJ6TcjCSk08Qs32s2y-16" value="&lt;span style=&quot;font-size: 21px;&quot;&gt;删除评论&lt;/span&gt;" style="ellipse;whiteSpace=wrap;html=1;strokeWidth=3;" parent="1" vertex="1">
          <mxGeometry x="577" y="490" width="140" height="70" as="geometry" />
        </mxCell>
        <mxCell id="15oJ6TcjCSk08Qs32s2y-17" value="&lt;font style=&quot;font-size: 12px;&quot;&gt;&amp;lt;&amp;lt;extend&amp;gt;&amp;gt;&lt;/font&gt;" style="html=1;verticalAlign=bottom;labelBackgroundColor=none;endArrow=open;endFill=0;dashed=1;rounded=0;strokeWidth=2;entryX=0.787;entryY=0.904;entryDx=0;entryDy=0;entryPerimeter=0;exitX=0.221;exitY=0;exitDx=0;exitDy=0;exitPerimeter=0;" parent="1" source="15oJ6TcjCSk08Qs32s2y-16" target="15oJ6TcjCSk08Qs32s2y-7" edge="1">
          <mxGeometry width="160" relative="1" as="geometry">
            <mxPoint x="648" y="427.5" as="sourcePoint" />
            <mxPoint x="490" y="376.5" as="targetPoint" />
          </mxGeometry>
        </mxCell>
        <mxCell id="mq_Bj4Qsk078ZasidcRF-1" value="&lt;font style=&quot;font-size: 19px;&quot;&gt;普通用户&lt;/font&gt;" style="shape=umlActor;verticalLabelPosition=bottom;verticalAlign=top;html=1;outlineConnect=0;strokeWidth=3;" vertex="1" parent="1">
          <mxGeometry x="1221" y="192" width="93" height="159" as="geometry" />
        </mxCell>
        <mxCell id="mq_Bj4Qsk078ZasidcRF-2" value="" style="endArrow=open;endFill=1;endSize=12;html=1;rounded=0;strokeWidth=2;" edge="1" parent="1">
          <mxGeometry width="160" relative="1" as="geometry">
            <mxPoint x="1318" y="252" as="sourcePoint" />
            <mxPoint x="1478" y="141" as="targetPoint" />
          </mxGeometry>
        </mxCell>
        <mxCell id="mq_Bj4Qsk078ZasidcRF-4" value="&lt;span style=&quot;font-size: 21px;&quot;&gt;发表评论&lt;/span&gt;" style="ellipse;whiteSpace=wrap;html=1;strokeWidth=3;" vertex="1" parent="1">
          <mxGeometry x="1478" y="102" width="140" height="70" as="geometry" />
        </mxCell>
        <mxCell id="mq_Bj4Qsk078ZasidcRF-6" value="&lt;span style=&quot;font-size: 21px;&quot;&gt;查看评论&lt;/span&gt;" style="ellipse;whiteSpace=wrap;html=1;strokeWidth=3;" vertex="1" parent="1">
          <mxGeometry x="1505" y="182" width="140" height="70" as="geometry" />
        </mxCell>
        <mxCell id="mq_Bj4Qsk078ZasidcRF-8" value="&lt;span style=&quot;font-size: 21px;&quot;&gt;回复评论&lt;/span&gt;" style="ellipse;whiteSpace=wrap;html=1;strokeWidth=3;" vertex="1" parent="1">
          <mxGeometry x="1491" y="269" width="140" height="70" as="geometry" />
        </mxCell>
        <mxCell id="mq_Bj4Qsk078ZasidcRF-10" value="&lt;span style=&quot;font-size: 21px;&quot;&gt;删除评论&lt;/span&gt;" style="ellipse;whiteSpace=wrap;html=1;strokeWidth=3;" vertex="1" parent="1">
          <mxGeometry x="1419" y="344" width="140" height="70" as="geometry" />
        </mxCell>
        <mxCell id="mq_Bj4Qsk078ZasidcRF-12" value="" style="endArrow=open;endFill=1;endSize=12;html=1;rounded=0;strokeWidth=2;" edge="1" parent="1">
          <mxGeometry width="160" relative="1" as="geometry">
            <mxPoint x="1319" y="255" as="sourcePoint" />
            <mxPoint x="1503" y="215" as="targetPoint" />
          </mxGeometry>
        </mxCell>
        <mxCell id="mq_Bj4Qsk078ZasidcRF-13" value="" style="endArrow=open;endFill=1;endSize=12;html=1;rounded=0;strokeWidth=2;" edge="1" parent="1">
          <mxGeometry width="160" relative="1" as="geometry">
            <mxPoint x="1318" y="258" as="sourcePoint" />
            <mxPoint x="1487" y="306.5" as="targetPoint" />
          </mxGeometry>
        </mxCell>
        <mxCell id="mq_Bj4Qsk078ZasidcRF-14" value="" style="endArrow=open;endFill=1;endSize=12;html=1;rounded=0;strokeWidth=2;" edge="1" parent="1">
          <mxGeometry width="160" relative="1" as="geometry">
            <mxPoint x="1318" y="263" as="sourcePoint" />
            <mxPoint x="1428" y="355.5" as="targetPoint" />
          </mxGeometry>
        </mxCell>
      </root>
    </mxGraphModel>
  </diagram>
  <diagram id="7wV6z4HljTWdz5f7aTx9" name="第 2 页">
    <mxGraphModel dx="1488" dy="893" grid="0" gridSize="10" guides="1" tooltips="1" connect="1" arrows="1" fold="1" page="1" pageScale="1" pageWidth="1169" pageHeight="827" math="0" shadow="0">
      <root>
        <mxCell id="0" />
        <mxCell id="1" parent="0" />
        <mxCell id="0rJUNtygxDZHgjcQJOGC-1" value="&lt;font style=&quot;font-size: 19px;&quot;&gt;普通用户&lt;/font&gt;" style="shape=umlActor;verticalLabelPosition=bottom;verticalAlign=top;html=1;outlineConnect=0;strokeWidth=3;" parent="1" vertex="1">
          <mxGeometry x="186" y="262" width="93" height="159" as="geometry" />
        </mxCell>
        <mxCell id="0rJUNtygxDZHgjcQJOGC-2" value="" style="endArrow=open;endFill=1;endSize=12;html=1;rounded=0;strokeWidth=2;" parent="1" edge="1">
          <mxGeometry width="160" relative="1" as="geometry">
            <mxPoint x="276" y="341" as="sourcePoint" />
            <mxPoint x="385" y="341" as="targetPoint" />
          </mxGeometry>
        </mxCell>
        <mxCell id="0rJUNtygxDZHgjcQJOGC-3" value="&lt;span style=&quot;font-size: 21px;&quot;&gt;图片操作&lt;/span&gt;" style="ellipse;whiteSpace=wrap;html=1;strokeWidth=3;" parent="1" vertex="1">
          <mxGeometry x="389" y="306.5" width="140" height="70" as="geometry" />
        </mxCell>
        <mxCell id="0rJUNtygxDZHgjcQJOGC-4" value="&lt;span style=&quot;font-size: 21px;&quot;&gt;上传照片&lt;/span&gt;" style="ellipse;whiteSpace=wrap;html=1;strokeWidth=3;" parent="1" vertex="1">
          <mxGeometry x="488" y="77" width="140" height="70" as="geometry" />
        </mxCell>
        <mxCell id="0rJUNtygxDZHgjcQJOGC-5" value="&lt;font style=&quot;font-size: 12px;&quot;&gt;&amp;lt;&amp;lt;extend&amp;gt;&amp;gt;&lt;/font&gt;" style="html=1;verticalAlign=bottom;labelBackgroundColor=none;endArrow=open;endFill=0;dashed=1;rounded=0;strokeWidth=2;entryX=1;entryY=0;entryDx=0;entryDy=0;" parent="1" target="0rJUNtygxDZHgjcQJOGC-3" edge="1">
          <mxGeometry width="160" relative="1" as="geometry">
            <mxPoint x="554" y="148" as="sourcePoint" />
            <mxPoint x="510" y="314" as="targetPoint" />
          </mxGeometry>
        </mxCell>
        <mxCell id="0rJUNtygxDZHgjcQJOGC-6" value="&lt;span style=&quot;font-size: 21px;&quot;&gt;查看图片&lt;/span&gt;" style="ellipse;whiteSpace=wrap;html=1;strokeWidth=3;" parent="1" vertex="1">
          <mxGeometry x="661" y="128" width="140" height="70" as="geometry" />
        </mxCell>
        <mxCell id="0rJUNtygxDZHgjcQJOGC-7" value="&lt;font style=&quot;font-size: 12px;&quot;&gt;&amp;lt;&amp;lt;extend&amp;gt;&amp;gt;&lt;/font&gt;" style="html=1;verticalAlign=bottom;labelBackgroundColor=none;endArrow=open;endFill=0;dashed=1;rounded=0;strokeWidth=2;exitX=0;exitY=0.5;exitDx=0;exitDy=0;entryX=0.959;entryY=0.276;entryDx=0;entryDy=0;entryPerimeter=0;" parent="1" source="0rJUNtygxDZHgjcQJOGC-6" target="0rJUNtygxDZHgjcQJOGC-3" edge="1">
          <mxGeometry width="160" relative="1" as="geometry">
            <mxPoint x="649" y="213" as="sourcePoint" />
            <mxPoint x="529" y="340" as="targetPoint" />
          </mxGeometry>
        </mxCell>
        <mxCell id="0rJUNtygxDZHgjcQJOGC-8" value="&lt;span style=&quot;font-size: 21px;&quot;&gt;修改图片&lt;/span&gt;" style="ellipse;whiteSpace=wrap;html=1;strokeWidth=3;" parent="1" vertex="1">
          <mxGeometry x="705" y="337" width="140" height="70" as="geometry" />
        </mxCell>
        <mxCell id="0rJUNtygxDZHgjcQJOGC-9" value="&lt;font style=&quot;font-size: 12px;&quot;&gt;&amp;lt;&amp;lt;extend&amp;gt;&amp;gt;&lt;/font&gt;" style="html=1;verticalAlign=bottom;labelBackgroundColor=none;endArrow=open;endFill=0;dashed=1;rounded=0;strokeWidth=2;entryX=0.95;entryY=0.744;entryDx=0;entryDy=0;entryPerimeter=0;exitX=0;exitY=0.5;exitDx=0;exitDy=0;" parent="1" source="0rJUNtygxDZHgjcQJOGC-8" target="0rJUNtygxDZHgjcQJOGC-3" edge="1">
          <mxGeometry width="160" relative="1" as="geometry">
            <mxPoint x="680" y="410" as="sourcePoint" />
            <mxPoint x="534" y="403" as="targetPoint" />
          </mxGeometry>
        </mxCell>
        <mxCell id="0rJUNtygxDZHgjcQJOGC-10" value="&lt;span style=&quot;font-size: 21px;&quot;&gt;移动图片&lt;/span&gt;" style="ellipse;whiteSpace=wrap;html=1;strokeWidth=3;" parent="1" vertex="1">
          <mxGeometry x="661" y="445" width="140" height="70" as="geometry" />
        </mxCell>
        <mxCell id="0rJUNtygxDZHgjcQJOGC-11" value="&lt;font style=&quot;font-size: 12px;&quot;&gt;&amp;lt;&amp;lt;extend&amp;gt;&amp;gt;&lt;/font&gt;" style="html=1;verticalAlign=bottom;labelBackgroundColor=none;endArrow=open;endFill=0;dashed=1;rounded=0;strokeWidth=2;entryX=0.787;entryY=0.904;entryDx=0;entryDy=0;entryPerimeter=0;exitX=0.221;exitY=0;exitDx=0;exitDy=0;exitPerimeter=0;" parent="1" source="0rJUNtygxDZHgjcQJOGC-10" target="0rJUNtygxDZHgjcQJOGC-3" edge="1">
          <mxGeometry width="160" relative="1" as="geometry">
            <mxPoint x="648" y="427.5" as="sourcePoint" />
            <mxPoint x="490" y="376.5" as="targetPoint" />
          </mxGeometry>
        </mxCell>
        <mxCell id="0rJUNtygxDZHgjcQJOGC-12" value="&lt;font style=&quot;font-size: 12px;&quot;&gt;&amp;lt;&amp;lt;extend&amp;gt;&amp;gt;&lt;/font&gt;" style="html=1;verticalAlign=bottom;labelBackgroundColor=none;endArrow=open;endFill=0;dashed=1;rounded=0;strokeWidth=2;entryX=1;entryY=0.5;entryDx=0;entryDy=0;" parent="1" target="0rJUNtygxDZHgjcQJOGC-3" edge="1">
          <mxGeometry width="160" relative="1" as="geometry">
            <mxPoint x="679" y="274" as="sourcePoint" />
            <mxPoint x="625" y="436" as="targetPoint" />
          </mxGeometry>
        </mxCell>
        <mxCell id="0rJUNtygxDZHgjcQJOGC-13" value="&lt;span style=&quot;font-size: 21px;&quot;&gt;删除图片&lt;/span&gt;" style="ellipse;whiteSpace=wrap;html=1;strokeWidth=3;" parent="1" vertex="1">
          <mxGeometry x="680" y="236.5" width="140" height="70" as="geometry" />
        </mxCell>
        <mxCell id="0rJUNtygxDZHgjcQJOGC-14" value="&lt;span style=&quot;font-size: 21px;&quot;&gt;设为封面&lt;/span&gt;" style="ellipse;whiteSpace=wrap;html=1;strokeWidth=3;" parent="1" vertex="1">
          <mxGeometry x="529" y="510" width="140" height="70" as="geometry" />
        </mxCell>
        <mxCell id="0rJUNtygxDZHgjcQJOGC-15" value="&lt;font style=&quot;font-size: 12px;&quot;&gt;&amp;lt;&amp;lt;extend&amp;gt;&amp;gt;&lt;/font&gt;" style="html=1;verticalAlign=bottom;labelBackgroundColor=none;endArrow=open;endFill=0;dashed=1;rounded=0;strokeWidth=2;entryX=0.673;entryY=0.996;entryDx=0;entryDy=0;entryPerimeter=0;exitX=0.5;exitY=0;exitDx=0;exitDy=0;" parent="1" source="0rJUNtygxDZHgjcQJOGC-14" target="0rJUNtygxDZHgjcQJOGC-3" edge="1">
          <mxGeometry width="160" relative="1" as="geometry">
            <mxPoint x="664" y="451.5" as="sourcePoint" />
            <mxPoint x="471" y="376.5" as="targetPoint" />
          </mxGeometry>
        </mxCell>
        <mxCell id="x-gBibqSb7xSTgJvlf6k-1" value="&lt;font style=&quot;font-size: 19px;&quot;&gt;普通用户&lt;/font&gt;" style="shape=umlActor;verticalLabelPosition=bottom;verticalAlign=top;html=1;outlineConnect=0;strokeWidth=3;" vertex="1" parent="1">
          <mxGeometry x="1296" y="227" width="93" height="159" as="geometry" />
        </mxCell>
        <mxCell id="x-gBibqSb7xSTgJvlf6k-2" value="" style="endArrow=open;endFill=1;endSize=12;html=1;rounded=0;strokeWidth=2;" edge="1" parent="1">
          <mxGeometry width="160" relative="1" as="geometry">
            <mxPoint x="1386" y="306" as="sourcePoint" />
            <mxPoint x="1590" y="87" as="targetPoint" />
          </mxGeometry>
        </mxCell>
        <mxCell id="x-gBibqSb7xSTgJvlf6k-4" value="&lt;span style=&quot;font-size: 21px;&quot;&gt;上传照片&lt;/span&gt;" style="ellipse;whiteSpace=wrap;html=1;strokeWidth=3;" vertex="1" parent="1">
          <mxGeometry x="1598" y="42" width="140" height="70" as="geometry" />
        </mxCell>
        <mxCell id="x-gBibqSb7xSTgJvlf6k-6" value="&lt;span style=&quot;font-size: 21px;&quot;&gt;查看图片&lt;/span&gt;" style="ellipse;whiteSpace=wrap;html=1;strokeWidth=3;" vertex="1" parent="1">
          <mxGeometry x="1771" y="93" width="140" height="70" as="geometry" />
        </mxCell>
        <mxCell id="x-gBibqSb7xSTgJvlf6k-8" value="&lt;span style=&quot;font-size: 21px;&quot;&gt;修改图片&lt;/span&gt;" style="ellipse;whiteSpace=wrap;html=1;strokeWidth=3;" vertex="1" parent="1">
          <mxGeometry x="1815" y="302" width="140" height="70" as="geometry" />
        </mxCell>
        <mxCell id="x-gBibqSb7xSTgJvlf6k-10" value="&lt;span style=&quot;font-size: 21px;&quot;&gt;移动图片&lt;/span&gt;" style="ellipse;whiteSpace=wrap;html=1;strokeWidth=3;" vertex="1" parent="1">
          <mxGeometry x="1771" y="410" width="140" height="70" as="geometry" />
        </mxCell>
        <mxCell id="x-gBibqSb7xSTgJvlf6k-13" value="&lt;span style=&quot;font-size: 21px;&quot;&gt;删除图片&lt;/span&gt;" style="ellipse;whiteSpace=wrap;html=1;strokeWidth=3;" vertex="1" parent="1">
          <mxGeometry x="1790" y="201.5" width="140" height="70" as="geometry" />
        </mxCell>
        <mxCell id="x-gBibqSb7xSTgJvlf6k-14" value="&lt;span style=&quot;font-size: 21px;&quot;&gt;设为封面&lt;/span&gt;" style="ellipse;whiteSpace=wrap;html=1;strokeWidth=3;" vertex="1" parent="1">
          <mxGeometry x="1639" y="475" width="140" height="70" as="geometry" />
        </mxCell>
        <mxCell id="x-gBibqSb7xSTgJvlf6k-17" value="" style="endArrow=open;endFill=1;endSize=12;html=1;rounded=0;strokeWidth=2;" edge="1" parent="1">
          <mxGeometry width="160" relative="1" as="geometry">
            <mxPoint x="1389" y="313" as="sourcePoint" />
            <mxPoint x="1767" y="140" as="targetPoint" />
          </mxGeometry>
        </mxCell>
        <mxCell id="x-gBibqSb7xSTgJvlf6k-18" value="" style="endArrow=open;endFill=1;endSize=12;html=1;rounded=0;strokeWidth=2;" edge="1" parent="1">
          <mxGeometry width="160" relative="1" as="geometry">
            <mxPoint x="1394" y="316.5" as="sourcePoint" />
            <mxPoint x="1781" y="243" as="targetPoint" />
          </mxGeometry>
        </mxCell>
        <mxCell id="x-gBibqSb7xSTgJvlf6k-19" value="" style="endArrow=open;endFill=1;endSize=12;html=1;rounded=0;strokeWidth=2;" edge="1" parent="1">
          <mxGeometry width="160" relative="1" as="geometry">
            <mxPoint x="1392" y="322" as="sourcePoint" />
            <mxPoint x="1806" y="329" as="targetPoint" />
          </mxGeometry>
        </mxCell>
        <mxCell id="x-gBibqSb7xSTgJvlf6k-20" value="" style="endArrow=open;endFill=1;endSize=12;html=1;rounded=0;strokeWidth=2;" edge="1" parent="1">
          <mxGeometry width="160" relative="1" as="geometry">
            <mxPoint x="1393" y="330" as="sourcePoint" />
            <mxPoint x="1758" y="425" as="targetPoint" />
          </mxGeometry>
        </mxCell>
        <mxCell id="x-gBibqSb7xSTgJvlf6k-21" value="" style="endArrow=open;endFill=1;endSize=12;html=1;rounded=0;strokeWidth=2;" edge="1" parent="1">
          <mxGeometry width="160" relative="1" as="geometry">
            <mxPoint x="1393" y="337" as="sourcePoint" />
            <mxPoint x="1650" y="479" as="targetPoint" />
          </mxGeometry>
        </mxCell>
      </root>
    </mxGraphModel>
  </diagram>
  <diagram id="k99PIFvDHWXPcWEj3qP9" name="第 3 页">
    <mxGraphModel dx="1488" dy="893" grid="0" gridSize="10" guides="1" tooltips="1" connect="1" arrows="1" fold="1" page="1" pageScale="1" pageWidth="1169" pageHeight="827" math="0" shadow="0">
      <root>
        <mxCell id="0" />
        <mxCell id="1" parent="0" />
        <mxCell id="Cah8lVm7tQeGezfozK6l-1" value="&lt;font style=&quot;font-size: 19px;&quot;&gt;普通用户&lt;/font&gt;" style="shape=umlActor;verticalLabelPosition=bottom;verticalAlign=top;html=1;outlineConnect=0;strokeWidth=3;" parent="1" vertex="1">
          <mxGeometry x="186" y="262" width="93" height="159" as="geometry" />
        </mxCell>
        <mxCell id="Cah8lVm7tQeGezfozK6l-2" value="" style="endArrow=open;endFill=1;endSize=12;html=1;rounded=0;strokeWidth=2;" parent="1" edge="1">
          <mxGeometry width="160" relative="1" as="geometry">
            <mxPoint x="276" y="341" as="sourcePoint" />
            <mxPoint x="385" y="341" as="targetPoint" />
          </mxGeometry>
        </mxCell>
        <mxCell id="Cah8lVm7tQeGezfozK6l-3" value="&lt;span style=&quot;font-size: 21px;&quot;&gt;相册操作&lt;/span&gt;" style="ellipse;whiteSpace=wrap;html=1;strokeWidth=3;" parent="1" vertex="1">
          <mxGeometry x="389" y="306.5" width="140" height="70" as="geometry" />
        </mxCell>
        <mxCell id="Cah8lVm7tQeGezfozK6l-4" value="&lt;span style=&quot;font-size: 21px;&quot;&gt;新建相册&lt;/span&gt;" style="ellipse;whiteSpace=wrap;html=1;strokeWidth=3;" parent="1" vertex="1">
          <mxGeometry x="488" y="77" width="140" height="70" as="geometry" />
        </mxCell>
        <mxCell id="Cah8lVm7tQeGezfozK6l-5" value="&lt;font style=&quot;font-size: 12px;&quot;&gt;&amp;lt;&amp;lt;extend&amp;gt;&amp;gt;&lt;/font&gt;" style="html=1;verticalAlign=bottom;labelBackgroundColor=none;endArrow=open;endFill=0;dashed=1;rounded=0;strokeWidth=2;entryX=1;entryY=0;entryDx=0;entryDy=0;" parent="1" target="Cah8lVm7tQeGezfozK6l-3" edge="1">
          <mxGeometry width="160" relative="1" as="geometry">
            <mxPoint x="554" y="148" as="sourcePoint" />
            <mxPoint x="510" y="314" as="targetPoint" />
          </mxGeometry>
        </mxCell>
        <mxCell id="Cah8lVm7tQeGezfozK6l-6" value="&lt;span style=&quot;font-size: 21px;&quot;&gt;设为隐私&lt;/span&gt;" style="ellipse;whiteSpace=wrap;html=1;strokeWidth=3;" parent="1" vertex="1">
          <mxGeometry x="661" y="128" width="140" height="70" as="geometry" />
        </mxCell>
        <mxCell id="Cah8lVm7tQeGezfozK6l-7" value="&lt;font style=&quot;font-size: 12px;&quot;&gt;&amp;lt;&amp;lt;extend&amp;gt;&amp;gt;&lt;/font&gt;" style="html=1;verticalAlign=bottom;labelBackgroundColor=none;endArrow=open;endFill=0;dashed=1;rounded=0;strokeWidth=2;exitX=0;exitY=0.5;exitDx=0;exitDy=0;entryX=0.947;entryY=0.276;entryDx=0;entryDy=0;entryPerimeter=0;" parent="1" source="Cah8lVm7tQeGezfozK6l-6" target="Cah8lVm7tQeGezfozK6l-3" edge="1">
          <mxGeometry width="160" relative="1" as="geometry">
            <mxPoint x="649" y="213" as="sourcePoint" />
            <mxPoint x="529" y="340" as="targetPoint" />
          </mxGeometry>
        </mxCell>
        <mxCell id="Cah8lVm7tQeGezfozK6l-8" value="&lt;span style=&quot;font-size: 21px;&quot;&gt;浏览相册&lt;/span&gt;" style="ellipse;whiteSpace=wrap;html=1;strokeWidth=3;" parent="1" vertex="1">
          <mxGeometry x="705" y="337" width="140" height="70" as="geometry" />
        </mxCell>
        <mxCell id="Cah8lVm7tQeGezfozK6l-9" value="&lt;font style=&quot;font-size: 12px;&quot;&gt;&amp;lt;&amp;lt;extend&amp;gt;&amp;gt;&lt;/font&gt;" style="html=1;verticalAlign=bottom;labelBackgroundColor=none;endArrow=open;endFill=0;dashed=1;rounded=0;strokeWidth=2;entryX=0.95;entryY=0.744;entryDx=0;entryDy=0;entryPerimeter=0;exitX=0;exitY=0.5;exitDx=0;exitDy=0;" parent="1" source="Cah8lVm7tQeGezfozK6l-8" target="Cah8lVm7tQeGezfozK6l-3" edge="1">
          <mxGeometry width="160" relative="1" as="geometry">
            <mxPoint x="680" y="410" as="sourcePoint" />
            <mxPoint x="534" y="403" as="targetPoint" />
          </mxGeometry>
        </mxCell>
        <mxCell id="Cah8lVm7tQeGezfozK6l-10" value="&lt;span style=&quot;font-size: 21px;&quot;&gt;删除相册&lt;/span&gt;" style="ellipse;whiteSpace=wrap;html=1;strokeWidth=3;" parent="1" vertex="1">
          <mxGeometry x="665" y="438" width="140" height="70" as="geometry" />
        </mxCell>
        <mxCell id="Cah8lVm7tQeGezfozK6l-11" value="&lt;font style=&quot;font-size: 12px;&quot;&gt;&amp;lt;&amp;lt;extend&amp;gt;&amp;gt;&lt;/font&gt;" style="html=1;verticalAlign=bottom;labelBackgroundColor=none;endArrow=open;endFill=0;dashed=1;rounded=0;strokeWidth=2;entryX=0.787;entryY=0.904;entryDx=0;entryDy=0;entryPerimeter=0;exitX=0.221;exitY=0;exitDx=0;exitDy=0;exitPerimeter=0;" parent="1" source="Cah8lVm7tQeGezfozK6l-10" target="Cah8lVm7tQeGezfozK6l-3" edge="1">
          <mxGeometry width="160" relative="1" as="geometry">
            <mxPoint x="648" y="427.5" as="sourcePoint" />
            <mxPoint x="490" y="376.5" as="targetPoint" />
          </mxGeometry>
        </mxCell>
        <mxCell id="Cah8lVm7tQeGezfozK6l-12" value="&lt;font style=&quot;font-size: 12px;&quot;&gt;&amp;lt;&amp;lt;extend&amp;gt;&amp;gt;&lt;/font&gt;" style="html=1;verticalAlign=bottom;labelBackgroundColor=none;endArrow=open;endFill=0;dashed=1;rounded=0;strokeWidth=2;entryX=1;entryY=0.5;entryDx=0;entryDy=0;" parent="1" target="Cah8lVm7tQeGezfozK6l-3" edge="1">
          <mxGeometry width="160" relative="1" as="geometry">
            <mxPoint x="679" y="274" as="sourcePoint" />
            <mxPoint x="625" y="436" as="targetPoint" />
          </mxGeometry>
        </mxCell>
        <mxCell id="Cah8lVm7tQeGezfozK6l-13" value="&lt;span style=&quot;font-size: 21px;&quot;&gt;修改相册&lt;/span&gt;" style="ellipse;whiteSpace=wrap;html=1;strokeWidth=3;" parent="1" vertex="1">
          <mxGeometry x="680" y="236.5" width="140" height="70" as="geometry" />
        </mxCell>
        <mxCell id="Cah8lVm7tQeGezfozK6l-14" value="&lt;span style=&quot;font-size: 21px;&quot;&gt;设置封面&lt;/span&gt;" style="ellipse;whiteSpace=wrap;html=1;strokeWidth=3;" parent="1" vertex="1">
          <mxGeometry x="558" y="515" width="140" height="70" as="geometry" />
        </mxCell>
        <mxCell id="Cah8lVm7tQeGezfozK6l-15" value="&lt;font style=&quot;font-size: 12px;&quot;&gt;&amp;lt;&amp;lt;extend&amp;gt;&amp;gt;&lt;/font&gt;" style="html=1;verticalAlign=bottom;labelBackgroundColor=none;endArrow=open;endFill=0;dashed=1;rounded=0;strokeWidth=2;entryX=0.673;entryY=0.996;entryDx=0;entryDy=0;entryPerimeter=0;exitX=0;exitY=0;exitDx=0;exitDy=0;" parent="1" source="Cah8lVm7tQeGezfozK6l-14" target="Cah8lVm7tQeGezfozK6l-3" edge="1">
          <mxGeometry width="160" relative="1" as="geometry">
            <mxPoint x="664" y="451.5" as="sourcePoint" />
            <mxPoint x="471" y="376.5" as="targetPoint" />
          </mxGeometry>
        </mxCell>
        <mxCell id="qq24YDxBv5NqBNqCsrot-1" value="&lt;font style=&quot;font-size: 19px;&quot;&gt;普通用户&lt;/font&gt;" style="shape=umlActor;verticalLabelPosition=bottom;verticalAlign=top;html=1;outlineConnect=0;strokeWidth=3;" vertex="1" parent="1">
          <mxGeometry x="1538" y="248" width="93" height="159" as="geometry" />
        </mxCell>
        <mxCell id="qq24YDxBv5NqBNqCsrot-2" value="" style="endArrow=open;endFill=1;endSize=12;html=1;rounded=0;strokeWidth=2;" edge="1" parent="1">
          <mxGeometry width="160" relative="1" as="geometry">
            <mxPoint x="1628" y="327" as="sourcePoint" />
            <mxPoint x="1839" y="114" as="targetPoint" />
          </mxGeometry>
        </mxCell>
        <mxCell id="qq24YDxBv5NqBNqCsrot-4" value="&lt;span style=&quot;font-size: 21px;&quot;&gt;新建相册&lt;/span&gt;" style="ellipse;whiteSpace=wrap;html=1;strokeWidth=3;" vertex="1" parent="1">
          <mxGeometry x="1840" y="63" width="140" height="70" as="geometry" />
        </mxCell>
        <mxCell id="qq24YDxBv5NqBNqCsrot-6" value="&lt;span style=&quot;font-size: 21px;&quot;&gt;设为隐私&lt;/span&gt;" style="ellipse;whiteSpace=wrap;html=1;strokeWidth=3;" vertex="1" parent="1">
          <mxGeometry x="2013" y="114" width="140" height="70" as="geometry" />
        </mxCell>
        <mxCell id="qq24YDxBv5NqBNqCsrot-8" value="&lt;span style=&quot;font-size: 21px;&quot;&gt;浏览相册&lt;/span&gt;" style="ellipse;whiteSpace=wrap;html=1;strokeWidth=3;" vertex="1" parent="1">
          <mxGeometry x="2057" y="323" width="140" height="70" as="geometry" />
        </mxCell>
        <mxCell id="qq24YDxBv5NqBNqCsrot-10" value="&lt;span style=&quot;font-size: 21px;&quot;&gt;删除相册&lt;/span&gt;" style="ellipse;whiteSpace=wrap;html=1;strokeWidth=3;" vertex="1" parent="1">
          <mxGeometry x="2017" y="424" width="140" height="70" as="geometry" />
        </mxCell>
        <mxCell id="qq24YDxBv5NqBNqCsrot-13" value="&lt;span style=&quot;font-size: 21px;&quot;&gt;修改相册&lt;/span&gt;" style="ellipse;whiteSpace=wrap;html=1;strokeWidth=3;" vertex="1" parent="1">
          <mxGeometry x="2032" y="222.5" width="140" height="70" as="geometry" />
        </mxCell>
        <mxCell id="qq24YDxBv5NqBNqCsrot-14" value="&lt;span style=&quot;font-size: 21px;&quot;&gt;设置封面&lt;/span&gt;" style="ellipse;whiteSpace=wrap;html=1;strokeWidth=3;" vertex="1" parent="1">
          <mxGeometry x="1910" y="501" width="140" height="70" as="geometry" />
        </mxCell>
        <mxCell id="qq24YDxBv5NqBNqCsrot-16" value="" style="endArrow=open;endFill=1;endSize=12;html=1;rounded=0;strokeWidth=2;" edge="1" parent="1">
          <mxGeometry width="160" relative="1" as="geometry">
            <mxPoint x="1632" y="332" as="sourcePoint" />
            <mxPoint x="2004" y="148" as="targetPoint" />
          </mxGeometry>
        </mxCell>
        <mxCell id="qq24YDxBv5NqBNqCsrot-17" value="" style="endArrow=open;endFill=1;endSize=12;html=1;rounded=0;strokeWidth=2;" edge="1" parent="1">
          <mxGeometry width="160" relative="1" as="geometry">
            <mxPoint x="1634" y="337" as="sourcePoint" />
            <mxPoint x="2027" y="255" as="targetPoint" />
          </mxGeometry>
        </mxCell>
        <mxCell id="qq24YDxBv5NqBNqCsrot-18" value="" style="endArrow=open;endFill=1;endSize=12;html=1;rounded=0;strokeWidth=2;" edge="1" parent="1">
          <mxGeometry width="160" relative="1" as="geometry">
            <mxPoint x="1633" y="342" as="sourcePoint" />
            <mxPoint x="2049" y="359" as="targetPoint" />
          </mxGeometry>
        </mxCell>
        <mxCell id="qq24YDxBv5NqBNqCsrot-19" value="" style="endArrow=open;endFill=1;endSize=12;html=1;rounded=0;strokeWidth=2;" edge="1" parent="1">
          <mxGeometry width="160" relative="1" as="geometry">
            <mxPoint x="1633" y="345" as="sourcePoint" />
            <mxPoint x="2014" y="449" as="targetPoint" />
          </mxGeometry>
        </mxCell>
        <mxCell id="qq24YDxBv5NqBNqCsrot-20" value="" style="endArrow=open;endFill=1;endSize=12;html=1;rounded=0;strokeWidth=2;entryX=0.014;entryY=0.274;entryDx=0;entryDy=0;entryPerimeter=0;" edge="1" parent="1" target="qq24YDxBv5NqBNqCsrot-14">
          <mxGeometry width="160" relative="1" as="geometry">
            <mxPoint x="1634" y="349" as="sourcePoint" />
            <mxPoint x="2024" y="459" as="targetPoint" />
          </mxGeometry>
        </mxCell>
      </root>
    </mxGraphModel>
  </diagram>
  <diagram id="pzXmBD8Wn6W7doAm8UYU" name="第 4 页">
    <mxGraphModel dx="976" dy="605" grid="0" gridSize="10" guides="1" tooltips="1" connect="1" arrows="1" fold="1" page="1" pageScale="1" pageWidth="1169" pageHeight="827" math="0" shadow="0">
      <root>
        <mxCell id="0" />
        <mxCell id="1" parent="0" />
      </root>
    </mxGraphModel>
  </diagram>
</mxfile>
